<svg xmlns:xlink="http://www.w3.org/1999/xlink" xmlns="http://www.w3.org/2000/svg" width="17" height="22" viewBox="0 0 17 22" fill="none"> <path d="M16.4803 8.62726C16.4803 13.0461 8.63745 20.6273 8.63745 20.6273C8.63745 20.6273 0.794617 13.0461 0.794617 8.62726C0.794617 4.20948 4.30597 0.627258 8.63745 0.627258C12.9689 0.627258 16.4803 4.20948 16.4803 8.62726Z" stroke="white" stroke-width="0.8"/> <path d="M8.89889 10.5615C9.5229 10.5615 10.1214 10.3136 10.5626 9.8724C11.0038 9.43116 11.2517 8.8327 11.2517 8.20869C11.2517 7.58467 11.0038 6.98621 10.5626 6.54497C10.1214 6.10372 9.5229 5.85583 8.89889 5.85583C8.27487 5.85583 7.67642 6.10372 7.23517 6.54497C6.79393 6.98621 6.54604 7.58467 6.54604 8.20869C6.54604 8.8327 6.79393 9.43116 7.23517 9.8724C7.67642 10.3136 8.27487 10.5615 8.89889 10.5615V10.5615Z" stroke="white" stroke-width="0.8" stroke-linecap="round" stroke-linejoin="round"/> </svg>