<svg xmlns:xlink="http://www.w3.org/1999/xlink" xmlns="http://www.w3.org/2000/svg" width="1001" height="1001" viewBox="0 0 1001 1001" fill="none"> <mask id="mask0_77_1242" style="mask-type:alpha" maskUnits="userSpaceOnUse" x="0" y="0" width="1001" height="1001"> <circle cx="500.208" cy="500.556" r="500" fill="white"/> </mask> <g mask="url(#mask0_77_1242)"> <circle cx="500.208" cy="500.556" r="500" fill="white"/> <path d="M493.489 30.1056C493.489 112.076 478.035 237.048 460.566 292.143C436.378 370.082 373.892 433.24 294.609 460.116C240.858 477.585 114.543 494.382 29.2125 494.382C-7.06961 494.382 -37.3047 497.07 -37.3047 499.757C-37.3047 503.117 9.05577 507.82 64.8227 509.836C180.388 515.211 200.545 517.226 271.765 535.367C362.47 558.884 433.691 624.729 460.566 709.387C478.035 765.154 493.489 890.126 493.489 972.096C493.489 1076.91 504.239 1050.04 508.942 932.455C513.646 816.89 529.771 725.513 554.631 673.105C573.444 632.12 629.883 575.009 670.196 555.524C719.916 531.336 815.997 514.539 932.234 509.836C990.016 507.82 1037.72 503.789 1037.72 501.101C1037.72 498.413 993.376 494.382 938.953 492.366C605.695 479.601 522.38 396.286 508.942 62.3563C506.927 7.93319 502.224 -36.4116 498.864 -36.4116C496.177 -36.4116 493.489 -6.17651 493.489 30.1056Z" fill="black"/> </g> </svg>